# xmcd CD database file
#
# Track frame offsets:
#	150
#	7532
#	19583
#	30547
#	41769
#	50056
#	59007
#	79085
#	88712
#	106234
#	115982
#	124017
#	137578
#	146815
#	154914
#	163633
#	177599
#
# Disc length: 2469 seconds
#
# Revision: 3
# Processed by: cddbd v1.5.2PL0 Copyright (c) Steve Scherf et al.
# Submitted via: CDex 1.70beta3
#
DISCID=e109a311
DTITLE=Janis Joplin - JANIS (DISC2)
DYEAR=1975
DGENRE=Rock
TTITLE0=TROUBLE IN MIND
TTITLE1=WHAT GOOD CAN DRINKIN' DO
TTITLE2=SILVER THREADS AND GOLDEN NEEDLES
TTITLE3=MISSISSIPPI RIVER
TTITLE4=STEALIN'
TTITLE5=NO REASON FOR LIVIN'
TTITLE6=BLACK MOUNTAIN BLUES
TTITLE7=WALK RIGHT IN
TTITLE8=RIVER JORDAN
TTITLE9=MARY JANE
TTITLE10=KANSAS CITY BLUES
TTITLE11=DADDY, DADDY, DADDY
TTITLE12=C.C. RIDER
TTITLE13=SAN FRANCISCO BAY BLUES
TTITLE14=WININ' BOY
TTITLE15=CARELESS LOVE
TTITLE16=I'LL DROWN IN MY OWN TEARS
EXTD=YEAR: 1975
EXTT0=
EXTT1=
EXTT2=
EXTT3=
EXTT4=
EXTT5=
EXTT6=
EXTT7=
EXTT8=
EXTT9=
EXTT10=
EXTT11=
EXTT12=
EXTT13=
EXTT14=
EXTT15=
EXTT16=
PLAYORDER=
